<svg width="144" height="131" viewBox="0 0 144 131" fill="none" xmlns="http://www.w3.org/2000/svg">
<path opacity="0.4" fill-rule="evenodd" clip-rule="evenodd" d="M138.412 5.80007C141.183 6.18281 143.449 6.84546 143.449 7.27486C143.449 7.70319 141.553 9.36777 139.236 10.973C136.92 12.5782 132.845 16.2212 130.182 19.069C127.519 21.9168 125.179 24.2461 124.982 24.2461C124.785 24.2461 124.873 22.0376 125.178 19.3383C125.611 15.4917 125.355 14.2184 123.988 13.4539C121.754 12.2039 121.736 10.463 123.956 10.463C125.533 10.463 125.533 10.252 123.956 7.8124C123.015 6.35458 121.527 4.05173 120.652 2.69463L119.06 0.228516L126.219 2.66707C130.155 4.00827 135.642 5.41838 138.412 5.80007ZM118.864 13.367C118.42 15.6698 114.822 16.536 114.822 14.3403C114.822 12.8835 116.203 11.8127 118.345 11.607C118.826 11.5614 119.059 12.3523 118.864 13.367ZM111.376 16.0293C110.708 18.0352 107.401 18.3204 107.401 16.3717C107.401 15.3889 108.307 14.704 109.609 14.704C110.905 14.704 111.636 15.2521 111.376 16.0293ZM104.22 18.3013C104.22 20.0995 101.353 21.3697 100.48 19.9585C100.136 19.4008 100.148 18.4678 100.509 17.8847C101.489 16.2996 104.22 16.606 104.22 18.3013ZM96.7981 21.5955C96.7981 22.4787 95.8556 23.1859 94.6776 23.1859C92.5657 23.1859 91.92 22.0557 93.2643 20.7123C94.5557 19.421 96.7981 19.9818 96.7981 21.5955ZM89.8737 24.1931C90.2162 24.7465 89.5578 25.7018 88.4106 26.3167C86.1851 27.5074 84.4559 26.2033 85.6656 24.2461C86.4958 22.9028 89.0563 22.8699 89.8737 24.1931ZM82.5421 29.4551C81.5105 31.1239 78.7741 30.8705 78.7741 29.1052C78.7741 27.3229 81.0409 26.2807 82.3396 27.4671C82.8422 27.9262 82.9334 28.821 82.5421 29.4551ZM45.9067 32.1979C45.9067 33.0811 44.9641 33.7883 43.7862 33.7883C42.6083 33.7883 41.6657 33.0811 41.6657 32.1979C41.6657 31.3147 42.6083 30.6075 43.7862 30.6075C44.9641 30.6075 45.9067 31.3147 45.9067 32.1979ZM53.8585 32.1979C53.8585 32.781 52.7844 33.4108 51.4729 33.5974C49.8317 33.8296 49.0874 33.3938 49.0874 32.1979C49.0874 31.0019 49.8317 30.5662 51.4729 30.7984C52.7844 30.985 53.8585 31.6148 53.8585 32.1979ZM75.8764 33.9293C75.2159 34.5898 73.809 34.7944 72.7487 34.383C70.9124 33.6716 70.9188 33.5656 72.8855 32.1184C75.3103 30.334 77.9015 31.9042 75.8764 33.9293ZM38.0121 34.7563C36.9805 36.4251 34.244 36.1717 34.244 34.4064C34.244 32.6241 36.5108 31.5819 37.8096 32.7683C38.3122 33.2274 38.4034 34.1222 38.0121 34.7563ZM61.2801 32.728C61.6406 33.3111 61.6533 34.2441 61.3088 34.8018C60.4362 36.213 57.5693 34.9428 57.5693 33.1447C57.5693 31.4494 60.3005 31.143 61.2801 32.728ZM31.0633 36.3254C31.0633 37.815 28.0141 39.575 27.0694 38.6304C26.7895 38.3494 26.8425 37.3846 27.1882 36.4844C27.9706 34.4456 31.0633 34.3194 31.0633 36.3254ZM69.3189 35.9087C70.9124 35.9087 70.4226 39.1064 68.7294 39.7563C66.8241 40.4868 63.5204 37.4312 64.5001 35.8441C64.8881 35.2175 65.9123 34.9747 66.7753 35.3065C67.6384 35.6373 68.7834 35.9087 69.3189 35.9087ZM24.1389 40.0967C24.4814 40.6501 23.823 41.6054 22.6758 42.2203C20.4503 43.411 18.7211 42.1069 19.9308 40.1497C20.761 38.8064 23.3215 38.7735 24.1389 40.0967ZM73.4941 41.7655C74.232 42.654 74.549 43.6675 74.2002 44.0174C73.1145 45.1031 70.2922 43.482 70.2922 41.7729C70.2922 39.697 71.7744 39.6927 73.4941 41.7655ZM63.9307 44.9208C63.0009 46.0414 62.1824 46.2471 61.4763 45.541C60.7691 44.8338 60.8804 43.9209 61.8102 42.8003C62.7401 41.6796 63.5586 41.4739 64.2647 42.18C64.9719 42.8872 64.8605 43.8001 63.9307 44.9208ZM17.7361 44.2708C18.5515 45.5887 15.5011 47.9074 14.0942 47.038C13.2672 46.527 13.2905 45.8951 14.178 44.8264C15.5997 43.1131 16.8954 42.9105 17.7361 44.2708ZM77.2484 50.416C76.537 52.2534 76.432 52.247 74.9879 50.2845C73.8015 48.674 73.7591 48.0495 74.7897 47.4134C76.6356 46.2715 78.1422 48.111 77.2484 50.416ZM60.0057 48.2404C60.3736 48.6093 60.1711 49.853 59.5541 51.0055C58.2319 53.4769 55.8411 51.9014 56.8653 49.2327C57.5279 47.5056 58.8522 47.0879 60.0057 48.2404ZM11.979 51.2822C11.979 53.1037 10.2137 54.2774 8.79514 53.4005C8.09008 52.9648 8.1081 52.0424 8.84815 50.6577C10.0346 48.4429 11.979 48.8309 11.979 51.2822ZM79.8343 57.176C79.8343 58.3084 79.1738 59.234 78.368 59.234C76.5391 59.234 75.3771 55.2538 77.031 54.6569C78.8525 53.9985 79.8343 54.8806 79.8343 57.176ZM56.5091 56.6162C56.5091 58.2204 53.7132 59.973 52.7272 58.9869C52.4473 58.706 52.5194 57.6934 52.8862 56.735C53.7302 54.5371 56.5091 54.4459 56.5091 56.6162ZM8.19398 56.9937C8.88632 58.1144 5.84767 60.8773 4.93057 59.9613C4.04739 59.077 5.32498 56.0533 6.58242 56.0533C7.14859 56.0533 7.87485 56.4763 8.19398 56.9937ZM54.1892 64.2584C53.9942 65.272 53.0421 66.2538 52.0741 66.4404C50.7615 66.6927 50.4593 66.2241 50.8845 64.5967C51.5789 61.9397 54.6971 61.6206 54.1892 64.2584ZM79.8343 62.8579C79.8343 64.5511 78.3023 66.6556 77.0703 66.6556C75.5467 66.6556 75.0494 64.3719 76.3005 63.1219C77.0724 62.3489 79.8343 62.1433 79.8343 62.8579ZM5.6176 63.9181C5.6176 65.6113 4.08555 67.7159 2.85355 67.7159C1.32999 67.7159 0.832743 65.4321 2.08382 64.1821C2.85568 63.4092 5.6176 63.2035 5.6176 63.9181ZM53.3283 73.0796C53.3283 74.212 52.6127 75.1375 51.738 75.1375C50.1656 75.1375 49.5147 71.8826 50.8251 70.5722C51.9309 69.4663 53.3283 70.8669 53.3283 73.0796ZM76.9695 70.5054C77.3374 70.8743 77.1349 72.118 76.5179 73.2705C75.1883 75.7546 73.0498 74.2925 74.0815 71.6038C74.7886 69.7611 75.8287 69.3656 76.9695 70.5054ZM3.49712 73.0171C3.49712 74.195 2.78994 75.1375 1.90677 75.1375C1.02359 75.1375 0.316406 74.195 0.316406 73.0171C0.316406 71.8392 1.02359 70.8966 1.90677 70.8966C2.78994 70.8966 3.49712 71.8392 3.49712 73.0171ZM73.4729 78.7858C73.4729 80.6338 71.7341 81.8605 70.3388 80.9975C68.9276 80.1249 70.1978 77.258 71.9959 77.258C72.8081 77.258 73.4729 77.9451 73.4729 78.7858ZM4.02724 80.9689C4.02724 83.6735 1.76575 84.1634 1.09674 81.6039C0.794573 80.4472 0.823205 79.2248 1.16036 78.8876C2.29588 77.7521 4.02724 79.0085 4.02724 80.9689ZM54.7586 79.8747C55.4393 81.6464 53.8595 83.0119 52.2681 82.0291C50.683 81.0494 50.9894 78.3183 52.6848 78.3183C53.4969 78.3183 54.431 79.0191 54.7586 79.8747ZM68.1717 84.0361C68.1717 85.5258 65.1224 87.2858 64.1778 86.3411C63.8979 86.0601 63.9509 85.0953 64.2965 84.1952C65.079 82.1563 68.1717 82.0302 68.1717 84.0361ZM59.0727 84.263C59.9951 84.6171 60.75 85.6223 60.75 86.4969C60.75 87.5116 60.1425 87.854 59.0727 87.4437C58.1503 87.0896 56.9724 86.8002 56.456 86.8002C55.9386 86.8002 55.7902 86.0845 56.1252 85.2098C56.8218 83.3957 56.8165 83.3968 59.0727 84.263ZM6.14242 89.9894C5.16488 91.5723 3.80671 91.2564 3.0444 89.2705C2.16758 86.9857 4.75351 85.2946 5.92507 87.3865C6.40218 88.24 6.49972 89.4105 6.14242 89.9894ZM9.50232 94.823C10.5265 97.4916 8.13567 99.0671 6.81355 96.5957C5.70772 94.5293 6.15938 93.1616 7.948 93.1616C8.45267 93.1616 9.15138 93.9091 9.50232 94.823ZM14.4865 103.801C13.0743 105.213 10.3929 102.291 11.4828 100.528C12.013 99.6704 12.7191 99.8093 13.914 101.004C15.0908 102.18 15.2626 103.025 14.4865 103.801ZM19.3222 107.38C20.1715 108.404 20.2118 109.094 19.4527 109.563C17.9715 110.478 16.22 109.312 16.22 107.412C16.22 105.466 17.7202 105.45 19.3222 107.38ZM25.5745 113.659C25.7727 114.681 25.2405 115.427 24.3117 115.427C22.3429 115.427 21.1533 113.698 22.0863 112.19C23.0447 110.639 25.162 111.529 25.5745 113.659ZM30.9849 117.983C31.8723 119.052 31.8956 119.683 31.0686 120.195C29.6617 121.064 26.6114 118.745 27.4267 117.427C28.2675 116.067 29.5631 116.269 30.9849 117.983ZM37.3463 123.284C38.2337 124.353 38.257 124.985 37.4301 125.496C36.0231 126.365 32.9728 124.046 33.7881 122.728C34.6289 121.368 35.9245 121.571 37.3463 123.284ZM43.1129 130.307C41.7007 131.719 39.0193 128.797 40.1093 127.034C40.6394 126.176 41.3455 126.315 42.5404 127.51C43.7173 128.686 43.889 129.531 43.1129 130.307Z" fill="white"/>
</svg>
